<svg width="135" height="47" viewBox="0 0 135 47" fill="none" xmlns="http://www.w3.org/2000/svg">
<path d="M0.0859855 18.4V0.563993H3.95999V7.63599H11.864V0.563993H15.738V18.4H11.864V10.912H3.95999V18.4H0.0859855ZM30.6075 18.712C28.7182 18.712 27.0889 18.374 25.7195 17.698C24.3502 17.022 23.3015 15.9993 22.5735 14.63C21.8455 13.2607 21.4815 11.5447 21.4815 9.48199C21.4815 7.38466 21.8455 5.65999 22.5735 4.30799C23.3015 2.93866 24.3502 1.92466 25.7195 1.26599C27.0889 0.589993 28.7182 0.251994 30.6075 0.251994C32.5315 0.251994 34.1695 0.589993 35.5215 1.26599C36.8909 1.92466 37.9395 2.93866 38.6675 4.30799C39.3955 5.65999 39.7595 7.38466 39.7595 9.48199C39.7595 11.5447 39.3955 13.2607 38.6675 14.63C37.9395 15.9993 36.8909 17.022 35.5215 17.698C34.1695 18.374 32.5315 18.712 30.6075 18.712ZM30.6075 15.54C31.4569 15.54 32.2022 15.4187 32.8435 15.176C33.4849 14.9333 34.0222 14.5693 34.4555 14.084C34.8889 13.5987 35.2182 13.0093 35.4435 12.316C35.6689 11.6053 35.7815 10.7993 35.7815 9.89799V9.09199C35.7815 8.17333 35.6689 7.35866 35.4435 6.64799C35.2182 5.93733 34.8889 5.34799 34.4555 4.87999C34.0222 4.39466 33.4849 4.03066 32.8435 3.78799C32.2022 3.54533 31.4569 3.42399 30.6075 3.42399C29.7755 3.42399 29.0389 3.54533 28.3975 3.78799C27.7562 4.03066 27.2189 4.39466 26.7855 4.87999C26.3522 5.34799 26.0229 5.93733 25.7975 6.64799C25.5895 7.35866 25.4855 8.17333 25.4855 9.09199V9.89799C25.4855 10.7993 25.5895 11.6053 25.7975 12.316C26.0229 13.0093 26.3522 13.5987 26.7855 14.084C27.2189 14.5693 27.7562 14.9333 28.3975 15.176C29.0389 15.4187 29.7755 15.54 30.6075 15.54ZM49.2132 18.4V3.81399H43.4932V0.563993H58.8592V3.81399H53.1132V18.4H49.2132ZM64.0754 18.4V0.563993H78.3234V3.73599H67.9754V7.71399H77.1274V10.86H67.9754V15.202H78.4794V18.4H64.0754ZM84.4235 18.4V0.563993H88.2975V15.098H97.2935V18.4H84.4235ZM0.345985 46.4V28.564H4.16799L8.22399 40.134C8.32799 40.446 8.43199 40.7927 8.53599 41.174C8.65732 41.538 8.76132 41.8847 8.84799 42.214C8.95199 42.5433 9.02999 42.8293 9.08199 43.072H9.26399C9.31599 42.812 9.38532 42.5173 9.47199 42.188C9.55865 41.8413 9.65399 41.486 9.75799 41.122C9.86199 40.758 9.95732 40.4287 10.044 40.134L14.1 28.564H17.896V46.4H15.426V35.948C15.426 35.4107 15.4347 34.83 15.452 34.206C15.4693 33.5647 15.4867 32.984 15.504 32.464C15.5213 31.9267 15.53 31.5453 15.53 31.32H15.322C15.27 31.5453 15.1833 31.866 15.062 32.282C14.9407 32.6807 14.8107 33.1053 14.672 33.556C14.5507 33.9893 14.438 34.3793 14.334 34.726L10.148 46.4H8.01599L3.82999 34.726C3.72599 34.4313 3.61332 34.0933 3.49199 33.712C3.38799 33.3133 3.27532 32.906 3.15399 32.49C3.04999 32.074 2.94599 31.684 2.84199 31.32H2.65999C2.67732 31.7013 2.68599 32.178 2.68599 32.75C2.70332 33.3047 2.71199 33.868 2.71199 34.44C2.72932 34.9947 2.73799 35.4973 2.73799 35.948V46.4H0.345985ZM24.9597 46.4V28.564H27.4297V46.4H24.9597ZM34.4913 46.4V28.564H43.8773C45.0906 28.564 46.096 28.7893 46.8933 29.24C47.708 29.6733 48.3146 30.2887 48.7133 31.086C49.112 31.866 49.3113 32.7673 49.3113 33.79C49.3113 35.0207 49.034 36.078 48.4793 36.962C47.9246 37.846 47.162 38.4787 46.1913 38.86L49.9353 46.4H47.2313L43.7473 39.302H36.9613V46.4H34.4913ZM36.9613 37.196H43.6433C44.6313 37.196 45.4026 36.8927 45.9573 36.286C46.5293 35.6793 46.8153 34.8473 46.8153 33.79C46.8153 33.1313 46.694 32.5767 46.4513 32.126C46.2086 31.6753 45.8533 31.3287 45.3853 31.086C44.9173 30.826 44.3366 30.696 43.6433 30.696H36.9613V37.196ZM53.9279 46.4L60.9739 28.564H64.2239L71.2959 46.4H68.6179L66.8759 41.98H58.1919L56.4759 46.4H53.9279ZM58.9979 39.874H66.0439L63.8859 34.284C63.8339 34.128 63.7559 33.9113 63.6519 33.634C63.5479 33.3567 63.4353 33.0533 63.3139 32.724C63.1926 32.3773 63.0713 32.0307 62.9499 31.684C62.8286 31.32 62.7159 30.9907 62.6119 30.696H62.4559C62.3346 31.0427 62.1959 31.4413 62.0399 31.892C61.8839 32.3427 61.7279 32.7847 61.5719 33.218C61.4159 33.634 61.2859 33.9893 61.1819 34.284L58.9979 39.874ZM76.3046 46.4V28.564H78.6966L87.3546 40.316C87.4412 40.42 87.5539 40.576 87.6926 40.784C87.8312 40.992 87.9699 41.2 88.1086 41.408C88.2472 41.5987 88.3599 41.772 88.4466 41.928H88.5506C88.5506 41.6507 88.5506 41.382 88.5506 41.122C88.5506 40.8447 88.5506 40.576 88.5506 40.316V28.564H90.9686V46.4H88.7066L79.9446 34.44C79.8232 34.2493 79.6412 33.9807 79.3986 33.634C79.1732 33.2873 78.9826 33.01 78.8266 32.802H78.6966C78.6966 33.0793 78.6966 33.3567 78.6966 33.634C78.6966 33.894 78.6966 34.1627 78.6966 34.44V46.4H76.3046ZM98.0491 46.4V28.564H104.705C106.577 28.564 108.172 28.876 109.489 29.5C110.806 30.124 111.812 31.0947 112.505 32.412C113.216 33.712 113.571 35.402 113.571 37.482C113.571 39.5273 113.216 41.2087 112.505 42.526C111.812 43.8433 110.806 44.8227 109.489 45.464C108.172 46.088 106.577 46.4 104.705 46.4H98.0491ZM100.519 44.268H104.653C105.641 44.268 106.525 44.1467 107.305 43.904C108.085 43.644 108.752 43.254 109.307 42.734C109.862 42.214 110.278 41.5467 110.555 40.732C110.85 39.9 110.997 38.912 110.997 37.768V37.248C110.997 36.0693 110.85 35.0727 110.555 34.258C110.278 33.426 109.862 32.75 109.307 32.23C108.77 31.71 108.111 31.3287 107.331 31.086C106.551 30.826 105.658 30.696 104.653 30.696H100.519V44.268ZM117.359 46.4L124.405 28.564H127.655L134.727 46.4H132.049L130.307 41.98H121.623L119.907 46.4H117.359ZM122.429 39.874H129.475L127.317 34.284C127.265 34.128 127.187 33.9113 127.083 33.634C126.979 33.3567 126.866 33.0533 126.745 32.724C126.623 32.3773 126.502 32.0307 126.381 31.684C126.259 31.32 126.147 30.9907 126.043 30.696H125.887C125.765 31.0427 125.627 31.4413 125.471 31.892C125.315 32.3427 125.159 32.7847 125.003 33.218C124.847 33.634 124.717 33.9893 124.613 34.284L122.429 39.874Z" fill="#111111"/>
</svg>
